PathFileType	4	(X/Y/Z)	/Users/visionmauri/1_9_1_f_Sports2D/1_9_1_f_Sports2D_px_person00.trc
DataRate	CameraRate	NumFrames	NumMarkers	Units	OrigDataRate	OrigDataStartFrame	OrigNumFrames
30.0	30.0	6	22	m	30.0	87	349
Frame#	Time	Hip			RHip			RKnee			RAnkle			RBigToe			RSmallToe			RHeel			LHip			LKnee			LAnkle			LBigToe			LSmallToe			LHeel			Neck			Head			Nose			RShoulder			RElbow			RWrist			LShoulder			LElbow			LWrist			
		X1	Y1	Z1	X2	Y2	Z2	X3	Y3	Z3	X4	Y4	Z4	X5	Y5	Z5	X6	Y6	Z6	X7	Y7	Z7	X8	Y8	Z8	X9	Y9	Z9	X10	Y10	Z10	X11	Y11	Z11	X12	Y12	Z12	X13	Y13	Z13	X14	Y14	Z14	X15	Y15	Z15	X16	Y16	Z16	X17	Y17	Z17	X18	Y18	Z18	X19	Y19	Z19	X20	Y20	Z20	X21	Y21	Z21	X22	Y22	Z22
87	2.908333333333333	619.8333824618388	785.3042924623356	0.0	677.3835861861442	790.6455822047191	0.0	660.2218567526313	1056.7677411372838	0.0	640.1847420864226	1278.3212890790853	0.0	613.5588294408984	1310.3650639371504	0.0	656.2213347773838	1321.8901380201432	0.0	636.2626123798009	1311.7303882189203	0.0	563.5119114606707	789.1803867643362	0.0	550.1039268791835	974.2078138160729	0.0	558.104397662892	1097.3647553174396	0.0	555.2072149786575	1257.9168589113497	0.0	529.6167731707816	1259.193460314742	0.0	563.8555624023212	1256.1295482748767	0.0	621.2517757653833	471.62080485588586	0.0	619.2199295125979	371.49571741522107	0.0	619.0063046259676	428.8419399349961	0.0	724.5604423345974	503.1005078031111	0.0	794.7572821434886	636.9093155232378	0.0	807.1639417120438	785.4817858113938	0.0	518.2702230750805	498.55374900491165	0.0	466.99691377702004	658.2848272884671	0.0	468.80857567832913	679.8995402593487	0.0
88	2.9417624521072794	619.7410114910151	784.5980930334766	0.0	676.3244874963631	789.8441805143542	0.0	659.1357436603181	1056.2340506289186	0.0	639.1947110498003	1278.01979507618	0.0	613.2142029555336	1310.4247377417016	0.0	654.6011003137667	1321.785323791879	0.0	634.8384160908989	1309.679464801511	0.0	562.4051369771306	788.4517448467359	0.0	550.2635142758835	974.2364070537222	0.0	558.3978596867787	1124.0553375377747	0.0	556.0787057602885	1256.9095100595503	0.0	529.1937441867635	1258.0852642048148	0.0	563.9275442776976	1249.9111548005226	0.0	622.3379770789841	471.5107692871858	0.0	618.9602430559577	371.40599132885905	0.0	619.2229966738314	428.9078449705369	0.0	725.7860234359752	503.84765264837006	0.0	796.0965950799956	642.9474613078187	0.0	806.1971293957386	783.112787834921	0.0	519.6833499752627	497.92881552028615	0.0	468.6070115121997	658.2916699575547	0.0	469.6007071203078	679.0742681553112	0.0
89	2.975191570881226	619.0215515921163	783.5080285390363	0.0	674.836442708743	789.8545870264772	0.0	659.0293365244866	1056.8991234703985	0.0	638.9304907884602	1277.9304462517325	0.0	613.1462143606292	1310.934078826112	0.0	653.1202068784361	1322.0365395828508	0.0	634.3107436946678	1308.7043070323462	0.0	561.7537520319416	786.7068576560973	0.0	550.5614843190169	969.9351758787597	0.0	558.949157640601	1154.6522502289345	0.0	555.499743246038	1257.2783981225912	0.0	529.793139186664	1257.341507014108	0.0	563.1894479515832	1240.6281788645158	0.0	623.8445041832323	471.2309744442939	0.0	618.865009844445	371.1980370219469	0.0	619.0047060243592	428.4519626536891	0.0	726.419612354592	505.22019384187854	0.0	796.728934228285	647.7141841149657	0.0	805.2292131634197	781.1714576930449	0.0	521.2965985903897	497.7451642385654	0.0	469.3791545544872	658.5335598189656	0.0	470.267219000819	678.311154851428	0.0
90	3.008620689655172	617.9949324782814	783.6852652257359	0.0	673.5620609901412	792.0790909739962	0.0	659.589989164244	1058.2714380060468	0.0	639.3957892497374	1278.1676859053384	0.0	614.4352588242984	1311.6452158663203	0.0	654.5050631519955	1321.8917433000865	0.0	634.9700297608252	1309.1672883827384	0.0	561.5370951007828	786.5693720641273	0.0	551.9428074791806	966.4060457742944	0.0	558.9083518153093	1185.8391930967302	0.0	553.3604365172265	1257.4215574169991	0.0	529.9250447373347	1258.8058072620686	0.0	562.2877711381922	1234.463178994762	0.0	624.8828430212122	471.9605666497449	0.0	619.2598226281092	371.39795485765325	0.0	619.196848521258	428.19182342581604	0.0	726.5042327077668	506.79942603395745	0.0	796.8107525181282	651.6080581111212	0.0	803.7851272079581	780.8516302809064	0.0	522.2428731482571	498.73408510065116	0.0	469.9495068843085	658.8579455126919	0.0	471.06404803133887	677.7458740891162	0.0
91	3.0420498084291188	617.8365248785848	786.2027022038263	0.0	673.9257611049412	795.6413489411285	0.0	659.9510606271493	1059.3474815051643	0.0	639.7926330512229	1278.6708753080213	0.0	616.8742097275832	1311.7561901121383	0.0	658.3998825793886	1321.0757474133457	0.0	635.8208065286184	1310.1578137711222	0.0	561.7174436565895	789.4075403993311	0.0	554.949265092365	968.5570842706429	0.0	557.908203372128	1197.701200255166	0.0	551.7186238722883	1257.5541223843459	0.0	528.1962470833979	1263.5760418738384	0.0	561.7004235405028	1228.9275003016328	0.0	625.0061712129747	473.9077317961876	0.0	619.8309468950944	371.95755009755686	0.0	619.6572262340247	428.3158275960525	0.0	726.3813847239246	507.5522779105992	0.0	796.4617556271318	655.3771062241043	0.0	802.2608418685888	782.1091054841809	0.0	522.614512778447	500.05880933873556	0.0	470.88264365633785	658.0083730016061	0.0	471.66113880503633	677.7720817213966	0.0
92	3.075478927203065	618.8323338265693	789.2256779161669	0.0	675.2458624853505	797.9379657435549	0.0	660.0319096237932	1059.601565150424	0.0	639.6806944915365	1279.0850676775017	0.0	618.7494253340661	1310.7282416036328	0.0	661.5391308028239	1319.9075455847767	0.0	636.1907193516132	1311.0005586981622	0.0	562.62897328479	792.7965477794961	0.0	558.5873476398612	973.5352940549864	0.0	556.4962119323812	1189.279242802645	0.0	552.1249591934213	1255.6650192366105	0.0	525.8574345256117	1265.4387176927053	0.0	560.4076428196747	1218.4068819830945	0.0	624.89129153221	475.6038905274798	0.0	619.9517641194527	372.86717540947484	0.0	619.9900739508664	428.45203532118285	0.0	726.6645727612266	507.95364134644365	0.0	795.2478451254293	658.89042936146	0.0	800.6359090200888	784.0473353623595	0.0	523.5973112919422	500.4040097640942	0.0	471.80417281630787	655.8894636373436	0.0	471.91161708203464	678.5863016693213	0.0
